<svg width="47" height="16" viewBox="0 0 47 16" fill="none" xmlns="http://www.w3.org/2000/svg">
<path d="M1 7C0.447715 7 0 7.44772 0 8C0 8.55228 0.447715 9 1 9V7ZM46.2071 8.70711C46.5976 8.31658 46.5976 7.68342 46.2071 7.29289L39.8431 0.928932C39.4526 0.538408 38.8195 0.538408 38.4289 0.928932C38.0384 1.31946 38.0384 1.95262 38.4289 2.34315L44.0858 8L38.4289 13.6569C38.0384 14.0474 38.0384 14.6805 38.4289 15.0711C38.8195 15.4616 39.4526 15.4616 39.8431 15.0711L46.2071 8.70711ZM1 9H45.5V7H1V9Z" fill="#FF8626"/>
</svg>
